<?xml version="1.0" encoding="utf-8"?>
<!-- Generator: Adobe Illustrator 25.2.3, SVG Export Plug-In . SVG Version: 6.00 Build 0)  -->
<svg version="1.1" id="Layer_1" xmlns="http://www.w3.org/2000/svg" xmlns:xlink="http://www.w3.org/1999/xlink" x="0px" y="0px"
	 viewBox="0 0 292 329.6" style="enable-background:new 0 0 292 329.6;" xml:space="preserve">
<style type="text/css">
	
		.st0{fill-rule:evenodd;clip-rule:evenodd;fill:#FFFFFF;stroke:#FFFFFF;stroke-linecap:round;stroke-linejoin:round;stroke-miterlimit:10;}
	.st1{fill:#FFFFFF;}
	.st2{fill:none;stroke:#FFFFFF;stroke-width:10;stroke-linecap:round;}
	.st3{fill:none;stroke:#FFFFFF;stroke-width:10;stroke-linecap:round;stroke-linejoin:round;}
</style>
<path class="st0" d="M228.1,108.3c0.8-4.8-2.4-9.3-7.1-10.2c-1.8-0.3-3.6-0.1-5.3,0.7l-25.2,11.4c-2.9,1.2-6,1.5-9,0.9
	c-28.4-5.1-57.7-2.6-84.8,7.3c-28.2,10.7-53.3,31.1-61.4,65.2c-7.7-0.5-14.8-4.3-19.3-10.6c-2.5-3.9-3.6-8.6-3.1-13.2
	c0.4-2.3-1.1-4.6-3.5-5c-2.4-0.4-4.6,1.3-5,3.7c0,0,0,0,0,0c-0.9,6.8,0.6,13.7,4.4,19.5c5.9,8.2,15.1,13.5,25.2,14.3
	c-1,12.4,0.9,24.8,5.6,36.4c4.9,13.2,13.2,25,24,34.1c4.6,3.2,7.7,8.2,8.3,13.7l0.9,25.7c0.4,11.8,10.1,21.2,22,21.2h11.2
	c9.1-0.1,17.2-5.8,20.3-14.3l1.5-4c3.1-6.7,10.2-10.8,17.6-10.1c1.2,0,2.5,0,3.7,0c7.8-0.6,15.1,3.6,18.5,10.5l1.3,3.5
	c3.2,8.6,11.5,14.4,20.7,14.3h12.4c12.1,0,22-9.8,22-22v-19.9c0.1-4.2,1.9-8.2,5.1-10.9c8.3-6.7,15.6-14.4,22-23
	c3.1-5.5,8-9.8,13.9-12l5.7-1.4c9.8-2.5,16.6-11.2,16.6-21.3v-14.4c0-9.3-5.8-17.5-14.5-20.7l-8.2-2.9c-3.4-1.3-6.3-3.8-7.9-7.1
	c-5.2-10.2-11.8-19.6-19.7-28c-3.2-3.1-5.8-6.7-7.9-10.7c-1.9-3.4-2.7-7.2-2.2-11.1L228.1,108.3z M194.2,118.3l25.2-11.4l-1.6,9.8
	c-0.8,5.7,0.2,11.5,3,16.5c2.5,4.8,5.8,9.1,9.7,12.9c7.2,7.7,13.3,16.4,18.1,25.8c2.7,5.2,7.2,9.3,12.7,11.4l8.2,2.9
	c5.3,1.9,8.8,6.8,8.8,12.4v14.4c0,6.1-4.1,11.4-10,12.9l-5.7,1.4c-8,2.7-14.8,8.3-19.1,15.6c-5.8,7.9-12.6,15-20.2,21.3
	c-5.2,4.3-8.3,10.8-8.4,17.6v19.9c0,7.3-5.9,13.2-13.2,13.2h-12.6c-5.6,0-10.5-3.5-12.3-8.8l-1.3-3.5c-3.9-10.8-16.2-16.2-26.7-16.1
	h-3.3c-11.3-0.9-21.8,5.4-26.3,15.8l-1.4,4c-1.9,5.2-6.8,8.7-12.3,8.8H94.4c-7.1,0-12.9-5.6-13.2-12.7l-0.9-25.7
	c-0.7-8.1-5-15.6-11.6-20.3c-9.6-8.1-16.9-18.6-21.2-30.4c-5-12.1-6.5-25.5-4.1-38.4c6.9-31.3,29.5-50.3,56.5-60.5
	c25.6-9.3,53.2-11.7,80-6.9C184.7,121,189.7,120.4,194.2,118.3z"/>
<path class="st1" d="M213.1,190.7c4.9,0,8.8-3.9,8.8-8.8c0-4.9-3.9-8.8-8.8-8.8c-4.9,0-8.8,3.9-8.8,8.8
	C204.4,186.7,208.3,190.7,213.1,190.7z"/>
<path class="st2" d="M94.7,163.1c8.8-8.8,39.1-23.1,80.5-15.4"/>
<path class="st3" d="M183.5,44.2c-0.1,19.4-15.9,35.1-35.3,35c-19.4-0.1-35.1-15.9-35-35.3c0.1-19.3,15.8-35,35.1-35
	C167.8,9,183.5,24.8,183.5,44.2C183.5,44.2,183.5,44.2,183.5,44.2z"/>
</svg>
