<svg id="svg" xmlns="http://www.w3.org/2000/svg" viewBox="0 0 242.77 242.88"><defs><style>.cls-1{fill:#fff;fill-rule:evenodd;}</style></defs><g id="svgg"><path id="path4" class="cls-1" d="M193.85,78.65c-3.17.95-4.43,6.89-1.6,7.6.52.13.95.4.95.59s.63.36,1.4.36H196V107c0,21.54-.05,21,2.23,21,.53,0,1,.18,1,.4s.36.4.8.4.8-.16.8-.35.61-.48,1.35-.62c1.88-.35,1.85,0,1.85-21.68v-19h3c1.65,0,3,.16,3,.35s2.16.48,4.8.63,4.8.43,4.8.6a6.74,6.74,0,0,0,2.8.59c1.54.15,2.8.45,2.8.65s.53.38,1.18.38a2.12,2.12,0,0,1,1.4.36,6.6,6.6,0,0,0,2.62.64,5.06,5.06,0,0,1,2.4.6c0,.18.9.45,2,.6s2,.44,2,.64.27.36.6.36.6.16.6.36.9.49,2,.64,2,.42,2,.61.54.44,1.2.59,1.2.43,1.2.63.45.37,1,.37,1,.17,1,.37.54.48,1.2.63,1.2.42,1.2.61.63.47,1.4.62,1.4.42,1.4.61.27.36.6.36.6.16.6.36.47.47,1,.62c1.58.39,3,2.22,1.76,2.22-.22,0-.51.45-.65,1s-.41,1-.6,1-.36.27-.36.6-.18.6-.39.6-.5.44-.64,1a1.87,1.87,0,0,1-.81,1.19,1.14,1.14,0,0,0-.56,1c0,.44-.18.81-.4.81s-.4.25-.4.56a1,1,0,0,1-.6.79,1.1,1.1,0,0,0-.6,1,1.13,1.13,0,0,1-.6,1,1,1,0,0,0-.6.84c0,.33-.18.61-.4.61s-.4.34-.4.76a1.1,1.1,0,0,1-.6,1,1,1,0,0,0-.6.85c0,.33-.18.61-.39.61s-.51.45-.65,1-.41,1-.6,1-.36.27-.36.6-.17.6-.37.6-.5.4-.66.88a4.07,4.07,0,0,1-.82,1.43A1.91,1.91,0,0,0,242,125c0,.31-.18.57-.4.57s-.4.27-.4.6-.18.6-.39.6-.5.44-.64,1a1.87,1.87,0,0,1-.81,1.19,1.11,1.11,0,0,0-.56,1,1.18,1.18,0,0,1-.79,1,1.9,1.9,0,0,0-1,1.6,2.35,2.35,0,0,1-.82,1.56.89.89,0,0,0-.56.74,1.8,1.8,0,0,1-.78,1.09,3.21,3.21,0,0,0-1,1.69c-.13.61-.4,1.12-.58,1.12s-.47.41-.63.9a4,4,0,0,1-1,1.52,4,4,0,0,0-1,1.7c-.15.6-.42,1.08-.6,1.08s-.45.4-.61.88c-.39,1.24-1.46,2.27-1.67,1.62a.8.8,0,0,0-.73-.5c-.32,0-.57-.17-.57-.37s-.54-.48-1.2-.63-1.2-.43-1.2-.63-.72-.48-1.6-.62-1.6-.41-1.6-.6-.45-.35-1-.35-1-.17-1-.37-1-.5-2.2-.65-2.2-.42-2.2-.6a10.89,10.89,0,0,0-3.6-.6c-2-.16-3.6-.44-3.6-.63s-3.24-.35-7.2-.35-7.2.15-7.2.34-1.56.45-3.47.59a11.2,11.2,0,0,0-3.7.62,6.6,6.6,0,0,1-2.73.67c-1.38.16-2.5.44-2.5.63s-.27.35-.6.35-.6.16-.6.35-.72.46-1.6.6-1.6.41-1.6.6-.72.46-1.6.6-1.6.44-1.6.65-.27.4-.6.4-.6.18-.6.4-.26.4-.57.4a1.91,1.91,0,0,0-1.12.55,4.46,4.46,0,0,1-1.53.85,4.19,4.19,0,0,0-1.58,1,4,4,0,0,1-1.5,1c-.5.16-.9.45-.9.66a.43.43,0,0,1-.46.37,4.2,4.2,0,0,0-1.6,1.2,4.51,4.51,0,0,1-1.53,1.2c-.49,0-7.21,6.72-7.21,7.21a4.51,4.51,0,0,1-1.2,1.53,4.2,4.2,0,0,0-1.2,1.6.43.43,0,0,1-.37.46c-.21,0-.5.4-.66.9a4,4,0,0,1-1,1.5,3.89,3.89,0,0,0-1,1.5c-.16.49-.44.9-.63.9s-.45.54-.6,1.2-.43,1.2-.63,1.2-.37.27-.37.6-.17.6-.38.6-.5.63-.65,1.4-.4,1.4-.57,1.4-.43.63-.57,1.4-.44,1.4-.65,1.4-.38.45-.38,1-.17,1-.37,1-.5,1-.65,2.2-.42,2.2-.6,2.2-.45,1.44-.6,3.2-.44,3.2-.63,3.2-.35,1.08-.35,2.4V196H87.2v-1c0-.55-.18-1-.4-1s-.4-.24-.4-.54c0-2.53-4.7-3.42-6.7-1.27l-1.1,1.2.05,11c0,6.77.21,11,.46,11.21a14.41,14.41,0,0,1,.68,4.35c.17,2.25.46,4.1.65,4.1s.36.54.36,1.2.16,1.2.35,1.2.48,1.35.64,3,.43,3,.62,3,.46.81.61,1.8.43,1.8.62,1.8.36.63.36,1.4.16,1.4.36,1.4.49.72.64,1.6.42,1.6.61,1.6.46.81.61,1.8.43,1.8.63,1.8.35.27.35.6.16.6.37.6.48.72.63,1.6.41,1.6.59,1.6.44.63.58,1.4.44,1.4.65,1.4.38.27.38.6.17.6.37.6.48.54.63,1.2.41,1.2.59,1.2.44.62.58,1.38a2,2,0,0,0,1,1.61,2,2,0,0,1,1,1.62c.14.77.41,1.39.59,1.39s.44.31.57.7a6.09,6.09,0,0,0,1.76,2.62,1.37,1.37,0,0,1,.5,1.06,1.08,1.08,0,0,0,.6,1,.94.94,0,0,1,.6.76,1.85,1.85,0,0,0,.8,1.1,1.86,1.86,0,0,1,.8,1.09,2.16,2.16,0,0,0,.8,1.2,2.22,2.22,0,0,1,.8,1.13,3,3,0,0,0,1,1.31,3,3,0,0,1,1,1.28,6.5,6.5,0,0,0,1.6,1.94,8.29,8.29,0,0,1,1.6,1.81,5.35,5.35,0,0,0,1.51,2c.28.26,1,1,1.65,1.63l1.55,1.54,1.65,1.66,1.65,1.65,1.5,1.49c.6.6,1.31,1.32,1.57,1.6a5.35,5.35,0,0,0,2,1.51,8.29,8.29,0,0,1,1.81,1.6,6.5,6.5,0,0,0,1.94,1.6,3,3,0,0,1,1.29,1,2.92,2.92,0,0,0,1.3,1,2.26,2.26,0,0,1,1.13.8,2.16,2.16,0,0,0,1.2.8,1.86,1.86,0,0,1,1.09.8,1.85,1.85,0,0,0,1.1.8.94.94,0,0,1,.76.6,1.08,1.08,0,0,0,1,.6,1.4,1.4,0,0,1,1.06.5,6.09,6.09,0,0,0,2.62,1.76c.39.13.7.38.7.57s.62.45,1.39.59a2,2,0,0,1,1.62,1,2,2,0,0,0,1.61,1c.76.14,1.38.4,1.38.58s.54.44,1.2.59,1.2.43,1.2.63.27.37.6.37.6.18.6.39.72.52,1.6.66,1.6.4,1.6.58.63.45,1.4.6,1.4.42,1.4.62.36.35.8.35.8.16.8.37.72.48,1.6.63,1.6.42,1.6.6.9.45,2,.6,2,.44,2,.64.45.36,1,.36,1,.17,1,.37,1,.5,2.2.65,2.2.42,2.2.59a5.83,5.83,0,0,0,2.6.6c1.43.16,2.6.44,2.6.64s.7.35,1.57.35,1.62.17,1.7.37,1.75.51,3.73.66,3.73.48,3.89.73c.4.62,30.62.62,31,0,.16-.25,1.91-.57,3.89-.73s3.66-.45,3.73-.66.84-.37,1.7-.37,1.57-.16,1.57-.35,1.17-.48,2.6-.64a5.83,5.83,0,0,0,2.6-.6c0-.17,1-.44,2.2-.59s2.2-.44,2.2-.65.45-.37,1-.37,1-.16,1-.36.9-.49,2-.64,2-.42,2-.6.72-.45,1.6-.6,1.6-.43,1.6-.63.36-.37.8-.37.8-.16.8-.35.63-.48,1.4-.62,1.4-.42,1.4-.62.54-.47,1.2-.61,1.2-.43,1.2-.63.45-.37,1-.37,1-.16,1-.36.45-.47,1-.6,1-.42,1-.62.54-.47,1.2-.62,1.2-.43,1.2-.63.27-.37.6-.37.6-.18.6-.4.37-.4.81-.4a1.16,1.16,0,0,0,1-.58,2.11,2.11,0,0,1,1.38-.83,3.18,3.18,0,0,0,1.67-1,3.06,3.06,0,0,1,1.4-1c.49-.16.9-.43.9-.61s.45-.45,1-.58,1-.43,1-.65.27-.39.6-.39.6-.17.6-.37.39-.5.86-.65a5,5,0,0,0,1.75-1.23,3.49,3.49,0,0,1,1.17-.95,5.72,5.72,0,0,0,1.48-1.2,4.71,4.71,0,0,1,1.6-1.2,6.69,6.69,0,0,0,1.9-1.6,5.24,5.24,0,0,1,2.16-1.6c.38,0,.68-.17.68-.37a4.8,4.8,0,0,1,1.25-1.55l1.64-1.58,1.61-1.6,1.6-1.61a15.63,15.63,0,0,0,2.7-3.11,12.94,12.94,0,0,1,2-2.22,10.06,10.06,0,0,0,2-2.32,4.81,4.81,0,0,1,1.2-1.58,5.72,5.72,0,0,0,1.2-1.48,3.49,3.49,0,0,1,.95-1.17,5,5,0,0,0,1.23-1.75c.15-.47.44-.86.65-.86s.37-.27.37-.6.18-.6.39-.6.51-.45.65-1,.39-1,.58-1,.45-.41.61-.9a3.06,3.06,0,0,1,1-1.4,3.18,3.18,0,0,0,1-1.67,2.11,2.11,0,0,1,.83-1.38,1.16,1.16,0,0,0,.58-1c0-.44.18-.81.4-.81s.4-.27.4-.6.17-.6.37-.6.49-.54.63-1.2.42-1.2.61-1.2.47-.63.62-1.4.42-1.4.61-1.4.36-.27.36-.6.17-.6.37-.6.48-.54.63-1.2.43-1.2.63-1.2.48-.72.62-1.6.41-1.6.6-1.6.35-.27.35-.6.16-.6.36-.6.49-.9.64-2,.44-2,.63-2,.48-.72.62-1.6.41-1.6.6-1.6.35-.54.35-1.2.17-1.2.38-1.2.5-1.08.65-2.4a5.32,5.32,0,0,1,.58-2.4,5.26,5.26,0,0,0,.59-2.4c.15-1.32.44-2.4.64-2.4s.36-.71.36-1.57.17-1.62.37-1.7.5-2.11.66-4.53.48-4.52.71-4.68c.58-.37.57-26.67,0-27.05a3.28,3.28,0,0,1-.66-1.59c-.31-1.59-1.12-2.48-2.24-2.48-.46,0-.83-.18-.83-.4a.47.47,0,0,0-.52-.4c-.74,0-2.67.94-2.68,1.3,0,.17-.27.3-.6.3a.6.6,0,0,0-.6.6c0,.33-.18.6-.4.6s-.4,1.33-.4,3.2.17,3.2.4,3.2.4,3.47.4,9.6c0,5.28-.15,9.6-.34,9.6s-.47,2.11-.62,4.69a21.43,21.43,0,0,1-.62,4.9,10.47,10.47,0,0,0-.62,3.31c-.16,1.7-.45,3.1-.65,3.1s-.35.54-.35,1.2-.16,1.2-.35,1.2-.48,1-.63,2.2-.43,2.2-.61,2.2-.46.9-.61,2-.44,2-.64,2-.36.45-.36,1-.16,1-.36,1-.49.72-.64,1.6-.42,1.6-.6,1.6-.45.72-.6,1.6-.43,1.6-.63,1.6-.37.27-.37.6-.16.6-.35.6-.46.72-.6,1.6-.42,1.6-.61,1.6-.47.48-.62,1.08a4,4,0,0,1-1,1.72,4,4,0,0,0-1,1.72c-.15.6-.42,1.08-.6,1.08s-.46.62-.6,1.39-.55,1.47-1,1.62-.76.49-.76.79a1.89,1.89,0,0,1-.55,1.09,4.07,4.07,0,0,0-.82,1.43c-.16.48-.45.88-.66.88s-.37.27-.37.6-.18.6-.39.6-.5.44-.64,1a1.84,1.84,0,0,1-.81,1.19,1.14,1.14,0,0,0-.56,1c0,.44-.15.81-.34.81A5.43,5.43,0,0,0,288.4,270a5.64,5.64,0,0,1-1.55,1.92,7.9,7.9,0,0,0-1.82,2.32,1.9,1.9,0,0,1-1,1.13c-.43.13-.78.38-.78.55a31.86,31.86,0,0,1-3.43,3.67c-3.74,3.67-3.74,3.67-5.16,5.27a3.16,3.16,0,0,1-1.53,1.1c-.31,0-1,.54-1.48,1.2s-1.17,1.2-1.48,1.2a5.15,5.15,0,0,0-2.52,2.46c0,.19-.37.34-.81.34a1.17,1.17,0,0,0-1.05.6.92.92,0,0,1-.76.6,3.37,3.37,0,0,0-1.54,1,3.62,3.62,0,0,1-1.43,1,.84.84,0,0,0-.65.56,2.31,2.31,0,0,1-1.56.81,2,2,0,0,0-1.59,1,2,2,0,0,1-1.59,1,2.37,2.37,0,0,0-1.57.84,1.16,1.16,0,0,1-1,.59c-.44,0-.81.18-.81.4s-.27.4-.6.4-.6.17-.6.37-.54.49-1.2.63-1.2.42-1.2.61-.63.47-1.4.62-1.4.42-1.4.62-.36.35-.8.35-.8.16-.8.35-.63.48-1.4.62-1.4.41-1.4.6-.72.44-1.6.58-1.6.44-1.6.66-.45.39-1,.39-1,.17-1,.37-.81.5-1.8.65-1.8.41-1.8.57-.94.41-2.1.55a4.22,4.22,0,0,0-2.23.65c-.08.23-.75.41-1.5.41s-1.37.17-1.37.38-1.26.5-2.8.65a6.93,6.93,0,0,0-2.8.59,16.4,16.4,0,0,1-4.4.6c-2.42.16-4.4.44-4.4.63s-2.16.35-4.8.35c-2.93,0-4.8.16-4.8.4s-1.07.4-2.4.4-2.4-.18-2.4-.4-1.87-.4-4.8-.4c-2.64,0-4.8-.16-4.8-.35s-2-.47-4.4-.63a16.4,16.4,0,0,1-4.4-.6,6.93,6.93,0,0,0-2.8-.59c-1.54-.15-2.8-.45-2.8-.65s-.63-.38-1.4-.38-1.4-.16-1.4-.35-1-.48-2.2-.63-2.2-.42-2.2-.6-.81-.45-1.8-.6-1.8-.44-1.8-.65-.45-.37-1-.37-1-.18-1-.39-.72-.52-1.6-.66-1.6-.41-1.6-.6-.72-.46-1.6-.6-1.6-.41-1.6-.6-.27-.35-.6-.35-.6-.16-.6-.35-.63-.48-1.4-.62-1.4-.42-1.4-.62-.54-.47-1.2-.61-1.2-.43-1.2-.63-.27-.37-.6-.37-.6-.16-.6-.36-.61-.47-1.36-.61a2.4,2.4,0,0,1-1.59-.84,1.14,1.14,0,0,0-1-.59c-.44,0-.81-.18-.81-.4s-.25-.4-.56-.4a1,1,0,0,1-.79-.6,1.1,1.1,0,0,0-1-.6,1.13,1.13,0,0,1-1-.6.88.88,0,0,0-.69-.6,2,2,0,0,1-1.11-.74,4.17,4.17,0,0,0-1.55-1c-.5-.16-.9-.43-.9-.61s-.44-.44-1-.58a1.84,1.84,0,0,1-1.23-1c-.14-.44-.51-.8-.81-.8a4.28,4.28,0,0,1-1.79-1.2,7.08,7.08,0,0,0-1.43-1.2c-.38,0-2.1-1.61-4.7-4.39a4.27,4.27,0,0,0-1.5-1.21,13.51,13.51,0,0,1-3.57-3.5,4.85,4.85,0,0,0-1.1-1.4l-2.3-2.28c-1.47-1.46-2.2-2.32-2.2-2.59a7.38,7.38,0,0,0-1.2-1.43,4.28,4.28,0,0,1-1.2-1.79c0-.3-.36-.67-.8-.81a1.84,1.84,0,0,1-1-1.23c-.14-.53-.39-1-.58-1s-.45-.4-.61-.9a4.09,4.09,0,0,0-1-1.5,3.87,3.87,0,0,1-.93-1.3c-.15-.38-.45-.7-.68-.7s-.41-.37-.41-.81a1.15,1.15,0,0,0-.6-1,1,1,0,0,1-.6-.79c0-.31-.18-.56-.4-.56s-.4-.37-.4-.81a1.14,1.14,0,0,0-.59-1,2.4,2.4,0,0,1-.84-1.59c-.14-.75-.42-1.36-.61-1.36s-.36-.27-.36-.6-.17-.6-.37-.6-.49-.54-.63-1.2-.42-1.2-.61-1.2-.47-.63-.62-1.4-.42-1.4-.62-1.4-.35-.27-.35-.6-.18-.6-.4-.6-.51-.72-.65-1.6-.41-1.6-.6-1.6-.46-.72-.6-1.6-.41-1.6-.6-1.6-.35-.45-.35-1-.17-1-.38-1-.49-.81-.64-1.8-.42-1.8-.6-1.8-.45-1-.6-2.2-.43-2.2-.63-2.2-.35-.63-.35-1.4-.17-1.4-.38-1.4-.5-1.26-.65-2.8a6.74,6.74,0,0,0-.59-2.8,16.4,16.4,0,0,1-.6-4.4c-.15-2.42-.44-4.4-.63-4.4s-.35-1.8-.35-4v-4h52.4v2.6c0,1.43.15,2.6.34,2.6s.46,1.39.6,3.08a9.53,9.53,0,0,0,.64,3.31,5.51,5.51,0,0,1,.64,2.32c.16,1.15.44,2.09.63,2.09s.35.36.35.8.16.8.36.8.49.72.64,1.6.42,1.6.6,1.6.45.54.6,1.2.43,1.2.63,1.2.37.27.37.6.17.6.37.6.48.54.63,1.2.43,1.2.63,1.2.37.37.37.81a1.15,1.15,0,0,0,.6,1,1,1,0,0,1,.6.79c0,.31.17.56.37.56s.5.4.66.9a5,5,0,0,0,1.23,1.78,3,3,0,0,1,.94,1.28c0,.52,9.12,9.64,9.64,9.64a3,3,0,0,1,1.28.94,5,5,0,0,0,1.78,1.23c.5.16.9.45.9.66s.25.37.56.37a1,1,0,0,1,.79.6,1.15,1.15,0,0,0,1,.6c.44,0,.81.17.81.37s.54.48,1.2.63,1.2.43,1.2.63.27.37.6.37.6.18.6.4.28.4.62.4c.65,0,.44,2.75-.24,3.2a4.16,4.16,0,0,0-.59,1.7c-.15.82-.44,1.5-.63,1.5s-.36.36-.36.8-.16.8-.35.8-.46.72-.6,1.6-.41,1.6-.6,1.6-.46.72-.6,1.6-.44,1.6-.66,1.6-.39.45-.39,1-.16,1-.35,1-.46.72-.6,1.6-.42,1.6-.62,1.6-.48.9-.63,2-.44,2-.64,2-.36.27-.36.6-.18.6-.4.6c-.82,0-.48,5.12.36,5.39a1.67,1.67,0,0,1,1,.83,1.38,1.38,0,0,0,1.24.58c.55,0,1,.18,1,.4s.45.4,1,.4,1,.16,1,.35.81.48,1.8.63,1.8.42,1.8.6a5.91,5.91,0,0,0,2.6.61c1.43.15,2.6.44,2.6.64s.72.37,1.6.37,1.6.17,1.6.37,2,.49,4.4.65,4.4.44,4.4.63,3.78.35,8.4.35,8.4-.15,8.4-.34,2.12-.47,4.7-.62,4.76-.45,4.83-.66.84-.38,1.7-.38,1.57-.16,1.57-.35,1-.48,2.2-.63,2.2-.42,2.2-.6,1-.45,2.2-.6,2.2-.45,2.2-.65.45-.37,1-.37,1-.18,1-.4.72-.51,1.6-.65,1.6-.39,1.6-.57.54-.44,1.2-.58,1.2-.43,1.2-.63.45-.37,1-.37,1-.17,1-.38.63-.5,1.4-.65,1.4-.4,1.4-.57.48-.44,1.08-.58a4,4,0,0,0,1.72-1,4,4,0,0,1,1.72-1c.6-.14,1.08-.41,1.08-.58s.45-.43,1-.56,1-.43,1-.65.27-.39.6-.39.6-.17.6-.37.39-.5.86-.65a4.91,4.91,0,0,0,1.7-1.17,5.15,5.15,0,0,1,1.72-1.18,1.9,1.9,0,0,0,1.13-1.05,1.1,1.1,0,0,1,.94-.78,3.16,3.16,0,0,0,1.67-1.18,3.6,3.6,0,0,1,1.46-1.2c.64,0,8.92-8.34,8.92-9A1.84,1.84,0,0,1,270,260c.85-.61,1.19-4,.4-4a.41.41,0,0,1-.4-.43,2.26,2.26,0,0,0-1.57-1.57.41.41,0,0,1-.43-.4c0-.22-.72-.4-1.6-.4s-1.6.18-1.6.4a.42.42,0,0,1-.44.4,51.17,51.17,0,0,0-5.6,5.2,60.46,60.46,0,0,1-5.54,5.2,4.92,4.92,0,0,0-1.56,1.2,5.72,5.72,0,0,1-1.48,1.2,3.88,3.88,0,0,0-1.22,1,3,3,0,0,1-1.55,1,1,1,0,0,0-.87.6.94.94,0,0,1-.78.6c-.31,0-.56.18-.56.39s-.45.51-1,.65-1,.39-1,.56-.45.43-1,.56-1,.43-1,.65-.27.39-.6.39-.6.17-.6.38-.63.5-1.4.65-1.4.41-1.4.58-.54.45-1.2.59-1.2.41-1.2.59-.5.44-1.1.59c-1.53.37-3.3,1.16-3.3,1.48a4.32,4.32,0,0,1-2,.54c-1.1.15-2,.43-2,.61s-.81.46-1.8.61-1.8.43-1.8.63-.63.35-1.4.35-1.4.17-1.4.37-1.21.5-2.7.65a8.5,8.5,0,0,0-2.93.64c-.13.2-2.87.47-6.1.61s-5.87.41-5.87.59-1.08.34-2.4.34-2.4-.15-2.4-.34-2.64-.45-5.87-.59-6-.41-6.1-.61a8.5,8.5,0,0,0-2.93-.64c-1.49-.15-2.7-.45-2.7-.65s-.63-.37-1.4-.37-1.4-.16-1.4-.35-.72-.46-1.6-.6c-1.38-.22-2.33-1.05-1.2-1.05.21,0,.51-.72.65-1.6s.41-1.6.6-1.6.35-.36.35-.8.16-.8.37-.8.48-.72.63-1.6.42-1.6.6-1.6.45-.72.6-1.6.43-1.6.64-1.6.36-.45.36-1,.18-1,.4-1,.51-.72.65-1.6.39-1.6.55-1.6.4-.63.52-1.4c.33-2,3.48-4,3.48-2.23,0,.21,1.44.5,3.2.65s3.2.44,3.2.63,4,.35,8.8.35,8.8-.16,8.8-.35,1.44-.47,3.2-.63,3.2-.42,3.2-.6,1-.45,2.2-.6,2.2-.45,2.2-.65.45-.37,1-.37,1-.18,1-.4.72-.51,1.6-.65,1.6-.39,1.6-.57.54-.43,1.2-.58,1.2-.43,1.2-.63.27-.37.6-.37.6-.17.6-.37.54-.48,1.2-.63,1.2-.42,1.2-.6.41-.47.9-.63a3.89,3.89,0,0,0,1.5-1,4,4,0,0,1,1.5-1c.5-.16.9-.45.9-.66a.43.43,0,0,1,.46-.37,4.2,4.2,0,0,0,1.6-1.2,4.51,4.51,0,0,1,1.53-1.2c.48,0,7.21-6.71,7.21-7.2a3.29,3.29,0,0,1,.92-1.28,6.52,6.52,0,0,0,1.19-1.62c.14-.39.44-.7.65-.7s.51-.4.67-.9a4,4,0,0,1,1-1.5,4.19,4.19,0,0,0,1-1.58,4.46,4.46,0,0,1,.85-1.53,1.91,1.91,0,0,0,.55-1.12c0-.31.18-.57.4-.57s.4-.27.4-.6.18-.6.4-.6.51-.72.65-1.6.41-1.6.6-1.6.46-.72.6-1.6.41-1.6.6-1.6.35-.45.35-1,.16-1,.36-1,.49-1,.65-2.1a5.63,5.63,0,0,1,.65-2.33,11.33,11.33,0,0,0,.61-3.7c.14-1.91.4-3.47.59-3.47s.34-3.24.34-7.2-.16-7.2-.35-7.2-.47-1.62-.63-3.6a10.89,10.89,0,0,0-.6-3.6c-.18,0-.45-1-.6-2.2s-.45-2.2-.65-2.2-.37-.45-.37-1-.16-1-.35-1-.46-.72-.6-1.6-.42-1.6-.62-1.6-.48-.54-.63-1.2-.43-1.2-.63-1.2-.37-.27-.37-.6-.16-.6-.35-.6-.48-.63-.62-1.4-.42-1.4-.6-1.4-.46-.45-.59-1-.43-1-.65-1-.39-.25-.39-.56a.94.94,0,0,0-.6-.78,1.13,1.13,0,0,1-.6-1,1.1,1.1,0,0,0-.6-1c-.33-.13-.6-.43-.6-.66a7,7,0,0,0-1.6-2,8,8,0,0,1-1.6-2c0-.47-4.31-4.78-4.78-4.78a4.92,4.92,0,0,1-1.56-1.2,6,6,0,0,0-1.46-1.2c-.41,0-1.4-1.1-1.4-1.57a.4.4,0,0,1,.36-.43c.19,0,.48-.48.62-1.08a4,4,0,0,1,1-1.7,4,4,0,0,0,1-1.52c.16-.5.44-.9.63-.9s.45-.5.58-1.12a3.26,3.26,0,0,1,1-1.69,1.78,1.78,0,0,0,.79-1.09.89.89,0,0,1,.56-.74,2.36,2.36,0,0,0,.82-1.57,1.9,1.9,0,0,1,1-1.59,1.18,1.18,0,0,0,.79-1,1.11,1.11,0,0,1,.56-1,1.84,1.84,0,0,0,.81-1.19c.14-.53.42-1,.64-1s.39-.27.39-.6.18-.6.4-.6.4-.26.4-.57a1.91,1.91,0,0,1,.55-1.12,4.07,4.07,0,0,0,.82-1.43c.16-.48.45-.88.66-.88s.37-.27.37-.6.16-.6.36-.6.47-.45.6-1,.43-1,.65-1,.39-.28.39-.61a1,1,0,0,1,.6-.84,1.12,1.12,0,0,0,.6-1c0-.42.18-.76.4-.76s.4-.28.4-.61a1,1,0,0,1,.6-.85,1.08,1.08,0,0,0,.6-1,1.35,1.35,0,0,1,.52-1.06,5.51,5.51,0,0,0,1.22-1.82c.38-.83.85-1.5,1-1.5s.46-.45.59-1,.43-1,.65-1,.39-.27.39-.6.18-.6.39-.6.51-.45.65-1,.39-1,.56-1,.42-.43.55-1c.31-1.21,1.47-1.7,2.08-.86a1.48,1.48,0,0,0,.9.62,3.55,3.55,0,0,1,1.43,1,3.62,3.62,0,0,0,1.43,1,.85.85,0,0,1,.66.59,1.82,1.82,0,0,0,1,.84,11.49,11.49,0,0,1,2.76,2.21,15.23,15.23,0,0,0,2.16,2,18.07,18.07,0,0,1,3.16,2.72c.24.29,1,1,1.6,1.6s1.36,1.31,1.6,1.59c1.35,1.58,2.75,2.89,3.07,2.89s.37.27.37.6a6,6,0,0,0,1.6,2.2,7.63,7.63,0,0,1,1.6,2,4.92,4.92,0,0,0,1.2,1.57,4.54,4.54,0,0,1,1.2,1.63.4.4,0,0,0,.37.43c.21,0,.5.39.65.86a5,5,0,0,0,1.23,1.75,3,3,0,0,1,1,1.34.43.43,0,0,0,.39.45c.22,0,.51.45.65,1s.39,1,.56,1,.43.45.56,1,.43,1,.65,1,.39.27.39.6.16.6.36.6.47.45.6,1,.42,1,.62,1,.48.54.62,1.2.43,1.2.63,1.2.37.27.37.6.16.6.36.6.47.63.61,1.4.42,1.4.62,1.4.46.54.61,1.2.43,1.2.63,1.2.37.27.37.6.16.6.35.6.46.72.6,1.6.41,1.6.6,1.6.46.72.6,1.6.44,1.6.66,1.6.39.45.39,1,.16,1,.36,1,.48.85.63,1.9a6.51,6.51,0,0,0,.55,2.1,4.59,4.59,0,0,1,.7,1c.92,1.66,5.85,1.81,6.36.2.14-.44.42-.79.63-.79s.37-1.08.37-2.4-.16-2.4-.36-2.4-.49-.9-.64-2-.42-2-.59-2-.42-.72-.56-1.6-.44-1.6-.65-1.6-.4-.45-.4-1-.17-1-.37-1-.48-.54-.63-1.2-.41-1.2-.58-1.2-.43-.72-.57-1.6-.44-1.6-.66-1.6-.39-.27-.39-.6-.16-.6-.36-.6-.47-.63-.61-1.4-.42-1.4-.61-1.4-.45-.48-.6-1.08a4,4,0,0,0-1-1.72,4,4,0,0,1-1-1.72c-.15-.6-.41-1.08-.58-1.08s-.43-.45-.56-1-.43-1-.65-1-.39-.27-.39-.6-.18-.6-.39-.6-.51-.45-.65-1-.39-1-.56-1-.42-.44-.56-1a1.84,1.84,0,0,0-1-1.23,1.19,1.19,0,0,1-.8-1,1.12,1.12,0,0,0-.6-1,1,1,0,0,1-.6-.8,2.88,2.88,0,0,0-1-1.43,2.94,2.94,0,0,1-1-1.31c0-.25-.53-.89-1.18-1.43a3.49,3.49,0,0,1-1.2-1.48,10.56,10.56,0,0,0-2.22-2.65,15.36,15.36,0,0,1-2.2-2.42,5.39,5.39,0,0,0-1.51-2c-.66-.62-2.55-2.51-3.17-3.17a5.39,5.39,0,0,0-1.95-1.51,15.36,15.36,0,0,1-2.42-2.2,10.75,10.75,0,0,0-2.65-2.22,3.55,3.55,0,0,1-1.48-1.2A3.85,3.85,0,0,0,274.7,104a4,4,0,0,1-1.34-1,3.41,3.41,0,0,0-1.53-1,1,1,0,0,1-.78-.6,1.12,1.12,0,0,0-1-.6,1.19,1.19,0,0,1-1-.8c-.14-.44-.5-.8-.8-.8a1.89,1.89,0,0,1-1.09-.55,4.07,4.07,0,0,0-1.43-.82c-.48-.16-.88-.45-.88-.66s-.27-.37-.6-.37-.6-.18-.6-.4-.26-.4-.57-.4a1.91,1.91,0,0,1-1.12-.55,4.46,4.46,0,0,0-1.53-.85,3.7,3.7,0,0,1-1.18-.55,8.2,8.2,0,0,0-2.5-1.51c-.38-.13-.7-.38-.7-.57s-.63-.45-1.4-.6-1.4-.42-1.4-.62-.27-.35-.6-.35-.6-.16-.6-.35-.72-.46-1.6-.6-1.6-.42-1.6-.62-.54-.48-1.2-.63-1.2-.43-1.2-.63-.45-.37-1-.37-1-.16-1-.35-.72-.46-1.6-.6-1.6-.42-1.6-.62-.9-.48-2-.63-2-.44-2-.64-.35-.36-.78-.36a1.34,1.34,0,0,1-1-.35A5.9,5.9,0,0,0,233,83c-1.22-.15-2.21-.43-2.21-.63a6.5,6.5,0,0,0-2.8-.62c-1.54-.15-2.8-.43-2.8-.62s-.71-.35-1.57-.35-1.62-.17-1.7-.37-1.93-.5-4.13-.66a17.33,17.33,0,0,1-4.21-.6c-.24-.37-18.62-.85-19.74-.52M170.5,81.87c-.71.1-1.3.32-1.3.5s-.93.43-2.07.56a6.48,6.48,0,0,0-2.48.66,1.54,1.54,0,0,1-1,.41,2,2,0,0,0-1.1.5c-.31.28-.84.73-1.18,1-.84.71-.84,4.65,0,5.36.34.29.87.74,1.18,1,.64.57,4.61.69,4.61.13,0-.21,1-.5,2.2-.65s2.2-.43,2.2-.63.45-.35,1-.35,1-.18,1-.4.67-.4,1.5-.41c2.77,0,4.77-5.45,2.75-7.47-.35-.35-5.39-.52-7.35-.25M144,92c0,.2-.54.49-1.2.63s-1.2.43-1.2.63-.27.37-.6.37-.6.18-.6.39-.45.51-1,.65-1,.39-1,.56-.45.43-1,.56-1,.43-1,.65-.27.39-.6.39-.6.16-.6.36-.41.46-.9.59c-1.4.36-2.79,4.65-1.5,4.65.22,0,.4.27.4.6,0,1.27,1.52,2.2,3.6,2.2,1.1,0,2-.18,2-.4s.37-.4.81-.4a1.15,1.15,0,0,0,1-.6,1,1,0,0,1,.79-.6c.31,0,.56-.16.56-.35s.61-.48,1.36-.62a2.4,2.4,0,0,0,1.59-.84,1.16,1.16,0,0,1,1-.59c.44,0,.81-.18.81-.4a.39.39,0,0,1,.39-.4,4.82,4.82,0,0,0,1.6-1.19c2.09-2,1.38-6.41-1-6.41-.3,0-.54-.18-.54-.4s-.72-.4-1.6-.4-1.6.17-1.6.37m-25.6,18a.47.47,0,0,1-.51.4,2.17,2.17,0,0,0-1.18.7c-.37.39-.88.9-1.14,1.15s-1,1-1.67,1.65-1.4,1.42-1.65,1.67-.76.77-1.15,1.14a2.17,2.17,0,0,0-.7,1.18.47.47,0,0,1-.4.51c-.22,0-.4,1.07-.4,2.4s.18,2.4.4,2.4.4.26.4.58c0,.75,2.33,1.2,4.45.86,1.48-.24,3.55-1.81,3.55-2.7a13.54,13.54,0,0,1,3.54-3.54c2.35,0,3.78-5.71,1.92-7.7-1-1.13-5.46-1.7-5.46-.7M100,132.8c0,.22-.44.4-1,.4a1.18,1.18,0,0,0-1.26.9,3.06,3.06,0,0,1-1,1.4,3.18,3.18,0,0,0-1,1.67,2.11,2.11,0,0,1-.83,1.38,1.16,1.16,0,0,0-.58,1c0,.44-.18.81-.4.81s-.4.27-.4.6-.17.6-.37.6-.48.54-.63,1.2S92.17,144,92,144s-.37.9-.37,2,.18,2,.4,2,.4.27.4.6a.6.6,0,0,0,.6.6c.33,0,.6.18.6.4s.91.4,2,.4c2,0,4.39-1.55,4.39-2.81a.37.37,0,0,1,.36-.39c.19,0,.47-.61.61-1.36a2.4,2.4,0,0,1,.84-1.59,1.14,1.14,0,0,0,.59-1c0-.44.18-.81.4-.81s.4-.25.4-.56a1,1,0,0,1,.6-.79,1.15,1.15,0,0,0,.6-1c0-.44.18-.81.4-.81s.4-.81.4-1.8-.18-1.8-.4-1.8-.4-.27-.4-.6a.6.6,0,0,0-.6-.6c-.33,0-.6-.18-.6-.4s-.27-.4-.6-.4-.6-.18-.6-.4-.45-.4-1-.4-1,.18-1,.4m160,1.5c-1.33.52-1.74,1.4-1.74,3.71v2.34l3.06,3a22.61,22.61,0,0,1,3.07,3.4,4.92,4.92,0,0,0,1.2,1.57,5.72,5.72,0,0,1,1.2,1.48,3.88,3.88,0,0,0,1,1.22,3,3,0,0,1,1,1.55,1,1,0,0,0,.6.87.94.94,0,0,1,.6.78c0,.31.18.56.39.56s.51.45.65,1,.39,1,.56,1,.43.45.56,1,.43,1,.65,1,.39.27.39.6.17.6.38.6.5.63.65,1.4.41,1.4.58,1.4.45.54.59,1.2.41,1.2.59,1.2.44.5.59,1.1c.37,1.53,1.16,3.3,1.48,3.3a4.32,4.32,0,0,1,.54,2c.15,1.1.43,2,.61,2s.46.81.61,1.8.43,1.8.63,1.8.35.63.35,1.4.17,1.4.37,1.4.5,1.21.65,2.7a8.44,8.44,0,0,0,.63,2.92A33.41,33.41,0,0,1,283,192a40.08,40.08,0,0,0,.67,7.08,1.86,1.86,0,0,1,0,1.8A40.08,40.08,0,0,0,283,208a33.41,33.41,0,0,1-.58,6.4,8.44,8.44,0,0,0-.63,2.92c-.15,1.49-.45,2.7-.65,2.7s-.37.63-.37,1.4-.16,1.4-.35,1.4-.48.81-.63,1.8-.42,1.8-.61,1.8-.46.9-.61,2a4.32,4.32,0,0,1-.54,2c-.32,0-1.11,1.77-1.48,3.3-.15.6-.41,1.1-.59,1.1s-.44.54-.59,1.2-.43,1.2-.63,1.2c-1,0-.37,3.67.8,4.83s5.23,1.79,5.23.77c0-.22.27-.4.6-.4a.6.6,0,0,0,.6-.6c0-.33.17-.6.37-.6s.49-.54.63-1.2.43-1.2.63-1.2.37-.36.37-.8.18-.8.39-.8.52-.72.66-1.6.41-1.6.6-1.6.46-.72.6-1.6.41-1.6.6-1.6.35-.36.35-.8.17-.8.37-.8.5-1,.65-2.2.41-2.2.58-2.2a6.23,6.23,0,0,0,.59-2.6c.15-1.43.44-2.6.64-2.6s.37-.7.37-1.57.21-1.63.5-1.73.5-3.67.5-15.9-.11-15.77-.5-15.9-.5-.92-.5-2.13-.16-2-.36-2-.49-1.08-.64-2.4a5.26,5.26,0,0,0-.59-2.4,5.32,5.32,0,0,1-.58-2.4c-.15-1.32-.44-2.4-.65-2.4s-.38-.36-.38-.8-.16-.8-.37-.8-.48-.72-.63-1.6-.42-1.6-.6-1.6-.45-.72-.6-1.6-.43-1.6-.64-1.6-.36-.36-.36-.8-.17-.8-.37-.8-.49-.54-.63-1.2-.42-1.2-.6-1.2-.45-.54-.6-1.2-.43-1.2-.63-1.2-.37-.36-.37-.8-.18-.8-.4-.8-.4-.28-.4-.61a1,1,0,0,0-.56-.83,2.4,2.4,0,0,1-.82-1.57,1.9,1.9,0,0,0-1-1.59,1.18,1.18,0,0,1-.79-1,1.12,1.12,0,0,0-.6-1,.93.93,0,0,1-.6-.73,3.26,3.26,0,0,0-.8-1.42,3.23,3.23,0,0,1-.8-1.43c0-.29-.35-.63-.78-.76a1.8,1.8,0,0,1-1-1c-.13-.43-.41-.78-.62-.78a.42.42,0,0,1-.37-.45,13.67,13.67,0,0,0-2.56-3,16.11,16.11,0,0,1-2.81-3.31c-.37-1.15-3.89-1.75-5.82-1m-51.28,14.52c.08.21.84.38,1.7.38s1.57.16,1.57.35,1,.48,2.2.63,2.2.42,2.2.6.72.43,1.6.57,1.6.44,1.6.66.45.39,1,.39,1,.17,1,.37.54.49,1.2.63,1.2.41,1.2.59.45.44,1,.57,1,.43,1,.65.27.39.6.39.6.18.6.4.27.4.6.4a2.18,2.18,0,0,1,1.29.8,2.41,2.41,0,0,0,1,.8,4,4,0,0,1,1.33,1,3.79,3.79,0,0,0,1.36,1c.48,0,7.2,6.72,7.2,7.2a3.79,3.79,0,0,0,1,1.36,4,4,0,0,1,1,1.33,2.41,2.41,0,0,0,.8,1,2.18,2.18,0,0,1,.8,1.29c0,.33.18.6.4.6s.4.27.4.6.18.6.39.6.51.45.65,1,.39,1,.57,1,.45.54.59,1.2.43,1.2.63,1.2.37.45.37,1,.18,1,.39,1,.52.72.66,1.6.4,1.6.57,1.6.45,1,.6,2.2.43,2.2.63,2.2.35.71.35,1.57.21,1.63.47,1.72.46,2.55.46,8.71-.13,8.6-.46,8.71-.47.86-.47,1.72-.16,1.57-.35,1.57-.48,1-.63,2.2-.42,2.2-.6,2.2-.43.72-.57,1.6-.44,1.6-.66,1.6-.39.45-.39,1-.17,1-.37,1-.49.54-.63,1.2-.41,1.2-.59,1.2-.44.48-.59,1.08a4,4,0,0,1-1,1.7,4,4,0,0,0-1,1.52c-.16.49-.45.9-.66.9s-.37.25-.37.54a2.41,2.41,0,0,1-1,1.3c-.55.41-1,1-1,1.23,0,.63-7.5,8.13-8.13,8.13-.26,0-.82.45-1.23,1a2.41,2.41,0,0,1-1.3,1c-.29,0-.54.17-.54.37s-.41.5-.9.66a4,4,0,0,0-1.52,1,4,4,0,0,1-1.7,1c-.6.15-1.08.41-1.08.59s-.54.45-1.2.59-1.2.43-1.2.63-.36.37-.8.37-.8.16-.8.36-.72.49-1.6.64-1.6.41-1.6.59-1,.44-2.2.59-2.2.45-2.2.65-.7.37-1.57.37-1.63.21-1.73.5-2.31.5-9.1.5-9-.12-9.1-.5-.84-.5-1.73-.5-1.57-.17-1.57-.37-1-.5-2.2-.65a4.76,4.76,0,0,1-2.2-.57c0-.17-.72-.42-1.6-.56s-1.6-.44-1.6-.66-.36-.39-.8-.39-.8-.16-.8-.36-.71-.49-1.57-.64-1.67-.52-1.79-.83a1,1,0,0,0-.83-.57c-.33,0-.61-.16-.61-.35s-.31-.46-.7-.59a8.73,8.73,0,0,1-3.18-2.16,3,3,0,0,0-1.3-.9,6.72,6.72,0,0,1-2-1.6,9,9,0,0,0-1.83-1.6,9,9,0,0,1-2.62-2.62,12.94,12.94,0,0,0-2-2.22,10.06,10.06,0,0,1-2-2.32,1.9,1.9,0,0,0-.5-.93,9.32,9.32,0,0,1-1.76-2.81c-.13-.39-.39-.7-.59-.7s-.35-.28-.35-.61a1,1,0,0,0-.56-.83,2.39,2.39,0,0,1-.82-1.59c-.14-.75-.43-1.37-.64-1.37s-.38-.45-.38-1-.18-1-.39-1-.52-.72-.66-1.6-.4-1.6-.58-1.6-.44-.81-.59-1.8-.43-1.8-.63-1.8-.35-.71-.35-1.57-.21-1.64-.5-1.73-.5-2.47-.5-9.9.12-9.77.5-9.9.5-.69.5-1.33.15-1.17.34-1.17.46-.93.59-2.07a5.7,5.7,0,0,1,.6-2.3,3.79,3.79,0,0,0,.63-1.73c.15-.82.45-1.5.66-1.5s.38-.36.38-.8.17-.8.37-.8.49-.54.63-1.2.41-1.2.59-1.2.44-.48.59-1.08a4,4,0,0,1,1-1.7,4.17,4.17,0,0,0,1-1.62,5.23,5.23,0,0,1,1.26-1.88,3,3,0,0,0,.94-1.29c0-.56,8.36-8.83,8.94-8.83.26,0,.81-.45,1.22-1a2.41,2.41,0,0,1,1.3-1c.29,0,.54-.17.54-.37s.41-.5.9-.66a4,4,0,0,0,1.52-1,4,4,0,0,1,1.7-1c.6-.15,1.08-.41,1.08-.59s.54-.45,1.2-.59,1.2-.43,1.2-.63.36-.37.8-.37.8-.17.8-.38.81-.49,1.8-.64,1.8-.42,1.8-.6,1-.45,2.2-.6,2.2-.43,2.2-.63.72-.35,1.6-.35,1.6-.17,1.6-.38c0-.82,17.25-.81,17.53,0m-11.59,11.05c-.87.23-1.13,1.33-1.13,4.83v2.9h-1.4c-.77,0-1.4.18-1.4.4s-.45.4-1,.4-1,.17-1,.37-.54.49-1.2.63-1.2.43-1.2.62-.44.48-1,.61a1.84,1.84,0,0,0-1.22,1c-.13.42-.4.76-.59.76a7.82,7.82,0,0,0-2.8,2.88,2,2,0,0,1-.74,1.07A4.27,4.27,0,0,0,181.4,178a2.88,2.88,0,0,1-.75,1.29c-.64.4-.62,13,0,13.43a2.67,2.67,0,0,1,.74,1.38c.15.61.44,1.1.63,1.1s.36.27.36.6.18.6.4.6.4.26.4.57c0,.79,2.4,3.26,3.5,3.6.5.16.9.45.9.66s.27.37.6.37.6.17.6.38.68.51,1.5.66a3.66,3.66,0,0,1,1.76.68c.15.23,2.62.49,5.5.6s5.24.34,5.24.53.63.35,1.4.35,1.4.16,1.4.36.47.47,1.05.62a6.22,6.22,0,0,1,3.57,3.57c.15.58.43,1.05.62,1.05s.36.63.36,1.4.18,1.4.4,1.4.4.54.4,1.2-.18,1.2-.4,1.2-.4.45-.4,1-.16,1-.36,1-.47.47-.61,1a5.19,5.19,0,0,1-1.74,2.69c-1.34,1.25-1.66,1.46-2.64,1.7-.58.15-1,.43-1,.62s-.45.36-1,.36-1,.18-1,.4-1.2.4-2.8.4-2.8-.17-2.8-.4-.45-.4-1-.4-1-.16-1-.36-.46-.47-1-.61a5.09,5.09,0,0,1-2.69-1.76c-.26-.29-.8-.82-1.18-1.19a2.12,2.12,0,0,1-.7-1.17.47.47,0,0,0-.4-.51c-.22,0-.4-.27-.4-.6,0-1.27-1.52-2.2-3.6-2.2-1.1,0-2,.18-2,.4s-.35.4-.78.4c-1.31,0-1.74,6.3-.46,6.72a.77.77,0,0,1,.44.71c0,.59,3,3.77,3.62,3.77.18,0,.44.36.58.8a1.84,1.84,0,0,0,1.23,1c.53.14,1,.39,1,.57s.54.45,1.2.59,1.2.43,1.2.63.36.37.8.37.8.18.8.4.44.4,1,.4c2.06,0,2.23.27,2.23,3.61s.49,4.39,1.83,4.39c.31,0,.57.18.57.4s.54.4,1.2.4,1.2-.18,1.2-.4.29-.4.64-.4c1.64,0,2.55-1.66,2.55-4.66s.21-3.34,2.24-3.34c.53,0,1-.18,1-.4s.36-.4.8-.4.8-.17.8-.37.54-.49,1.2-.63,1.2-.43,1.2-.62.44-.48,1-.61a1.84,1.84,0,0,0,1.22-1c.13-.42.4-.76.59-.76.56,0,2.8-2.42,2.8-3,0-.31.18-.57.4-.57s.4-.27.4-.6.17-.6.37-.6.49-.59.65-1.3a3.13,3.13,0,0,1,.73-1.59c.61-.38.56-11.47,0-11.85a2.7,2.7,0,0,1-.71-1.36c-.15-.61-.44-1.1-.63-1.1s-.36-.36-.36-.8-.18-.8-.4-.8a.43.43,0,0,1-.4-.45c0-.62-3.68-4.33-4.3-4.34a.47.47,0,0,1-.5-.41c0-.22-.36-.4-.8-.4s-.8-.17-.8-.38-.67-.51-1.5-.66a3.77,3.77,0,0,1-1.74-.64c-.13-.21-2.61-.48-5.5-.61s-5.26-.38-5.26-.57-.54-.34-1.2-.34-1.2-.18-1.2-.4-.26-.4-.57-.4a1.91,1.91,0,0,1-1.12-.55,4.14,4.14,0,0,0-1.39-.81c-.55-.18-.92-.74-1.1-1.65s-.43-1.39-.64-1.39-.38-.45-.38-1-.18-1-.4-1-.4-1-.4-2.2.18-2.2.4-2.2.4-.45.4-1,.18-1,.4-1a.47.47,0,0,0,.4-.51,2.12,2.12,0,0,1,.7-1.17c.38-.37.92-.9,1.18-1.19a5.09,5.09,0,0,1,2.69-1.76c.57-.14,1-.42,1-.61s.54-.36,1.2-.36,1.2-.18,1.2-.4,1.07-.4,2.4-.4,2.4.18,2.4.4.36.4.8.4.8.16.8.35.61.48,1.36.62a2.4,2.4,0,0,1,1.59.84,1.13,1.13,0,0,0,1,.59,1.21,1.21,0,0,1,1.07.88,4.07,4.07,0,0,0,.82,1.43,1.91,1.91,0,0,1,.55,1.12c0,.31.18.57.4.57a.41.41,0,0,1,.4.43c0,1.46,5.05,2.63,5.5,1.27a1,1,0,0,1,.92-.5c1.27,0,1.65-5.91.41-6.33a.7.7,0,0,1-.43-.66.94.94,0,0,0-.6-.76,1,1,0,0,1-.6-.86c0-.65-2.75-3.39-3.4-3.39a4.15,4.15,0,0,1-1.14-1,4.83,4.83,0,0,0-2-1.25c-.59-.14-1.08-.43-1.08-.62s-.45-.36-1-.36-1-.18-1-.4-.63-.4-1.4-.4H204v-3c0-4.48-2.14-5.95-6.86-4.69M85.52,161.41c-.29.34-.74.87-1,1.18a1.87,1.87,0,0,0-.5,1,.4.4,0,0,1-.35.43c-.19,0-.47.94-.62,2.09a5.24,5.24,0,0,1-.7,2.35c-.22.14-.51,2.13-.62,4.43-.24,4.59.12,5.53,2.12,5.53.53,0,1,.18,1,.4s.27.4.6.4.6-.18.6-.4.41-.4.91-.4c1.23,0,2.34-1.39,2.59-3.26.11-.85.36-1.54.55-1.54s.35-.63.35-1.4.16-1.4.35-1.4.48-1,.63-2.2.44-2.2.65-2.2.37-.72.37-1.6-.16-1.6-.36-1.6-.46-.43-.59-.95c-.37-1.45-4.88-2.09-5.93-.84" transform="translate(-78.6 -78.54)"/></g></svg>