<svg width="85" height="17" viewBox="0 0 85 17" fill="none" xmlns="http://www.w3.org/2000/svg">
<path fill-rule="evenodd" clip-rule="evenodd" d="M77.4316 0H70.5465C68.8886 0 67.5965 0.403291 66.6705 1.20987C65.7593 2.00152 65.3037 3.17405 65.3037 4.72747C65.3037 6.28089 65.7593 7.46089 66.6705 8.26747C67.5965 9.05911 68.8886 9.45494 70.5465 9.45494H78.5675C79.2248 9.45494 79.7251 9.61177 80.0687 9.92544C80.4272 10.2242 80.6064 10.7171 80.6064 11.4042C80.6064 12.0913 80.4272 12.5916 80.0687 12.9053C79.7251 13.2041 79.2248 13.3534 78.5675 13.3534L65.6846 13.331V16.2437H78.9484C80.6064 16.2437 81.891 15.8329 82.8021 15.0114C83.7282 14.1899 84.1912 12.9875 84.1912 11.4042C84.1912 9.80595 83.7282 8.60354 82.8021 7.79696C81.891 6.97544 80.6064 6.56468 78.9484 6.56468H70.9274C70.2851 6.56468 69.7848 6.42278 69.4263 6.13899C69.0678 5.84025 68.8886 5.36975 68.8886 4.72747C68.8886 4.08519 69.0678 3.62215 69.4263 3.33835C69.7848 3.03962 70.2851 2.89025 70.9274 2.89025L77.4316 2.90219V0ZM80.4316 2.90769V0H83.1382V2.91266L80.4316 2.90769ZM3.58481 13.1316V13.219H9.56696C11.449 13.219 12.8754 12.8082 13.8463 11.9867C14.8172 11.1652 15.3027 9.87316 15.3027 8.11063C15.3027 6.33316 14.8172 5.04114 13.8463 4.23456C12.8754 3.41304 11.449 3.00228 9.56696 3.00228H3.58481V3.13165H0V0.112025H2.6438L9.81342 0.0896206C12.7111 0.0896206 14.9591 0.769241 16.5573 2.12848C18.1556 3.48772 18.9547 5.48177 18.9547 8.11063C18.9547 10.7395 18.1556 12.7335 16.5573 14.0928C14.9591 15.452 12.7111 16.1316 9.81342 16.1316H0V13.1316H3.58481ZM24.9433 15.6163C25.8843 16.0346 27.1689 16.2437 28.797 16.2437H34.331C35.9591 16.2437 37.2437 16.0346 38.1847 15.6163C39.1257 15.1832 39.7979 14.5334 40.2012 13.6671C40.6044 12.8008 40.8061 11.7104 40.8061 10.3959V0.112025H37.2213V10.3959C37.2213 11.5311 36.9524 12.3078 36.4147 12.7261C35.8919 13.1294 34.9957 13.331 33.7261 13.331H29.4019C28.1323 13.331 27.2286 13.1294 26.6909 12.7261C26.1681 12.3078 25.9067 11.5311 25.9067 10.3959V0.112025H22.3219V10.3959C22.3219 11.7104 22.5236 12.8008 22.9269 13.6671C23.3301 14.5334 24.0023 15.1832 24.9433 15.6163ZM45.0596 0.112025V16.1316H62.6251V13.219H48.6444V9.47734H61.3256V6.56468H48.6444V3.02468H62.6251V0.112025H45.0596Z" fill="#F39C12"/>
</svg>
